# xmcd CD database file
#
# Track frame offsets:
#	150
#	14372
#	29635
#	43002
#	56302
#	69572
#	83600
#	98110
#	112745
#	126185
#	140685
#	155885
#	170955
#	184835
#	198250
#	212047
#	226307
#	240222
#	254765
#	267417
#	281572
#	295660
#	311692
#
# Disc length: 4358 seconds
#
# Revision: 4
# Processed by: cddbd v1.4PL0 Copyright (c) Steve Scherf et al.
# Submitted via: CDex 1.50Beta7
#
DISCID=53110417
DTITLE=Alger ''Texas'' Alexander - Complete Recorded Works, Vol. 2 (1928 - 1930)
DYEAR=1990
DGENRE=Blues
TTITLE0=Penitentiary Blues (1928)
TTITLE1=Blue Devil Blues (1928)
TTITLE2=Tell Me Woman Blues (1928)
TTITLE3='Frisco Train Blues (1928)
TTITLE4=St. Louis Fair Blues (1928)
TTITLE5=I am Calling Blues (1928)
TTITLE6=Double Crossing Blues (1929)
TTITLE7=Ninety-Eight Degree Blues (1929)
TTITLE8=Ninety-Eight Degree Blues (unissued 1929)
TTITLE9=Someday, Baby, Your Troubles is Gonna be Like Mine (1929)
TTITLE10=Water Bound Blues (1929)
TTITLE11=Awful Moaning Blues, part 1 (1929)
TTITLE12=Awful Moaning Blues, part 2 (1929)
TTITLE13=Gold Tooth Blues (1929)
TTITLE14=Johnny Behren's Blues (1929)
TTITLE15=Rolling Mill Blues (1929)
TTITLE16=Broken Yo-Yo (1929)
TTITLE17=Texas Special (1929)
TTITLE18=When You Get to Thinking (1929)
TTITLE19=Thirty Day Blues (1929)
TTITLE20=Peaceful Blues (1929)
TTITLE21=Days is Lonesome (1930)
TTITLE22=Seen Better Days (1930)
EXTD=Document Records MBCD 2002\n\nTexas Alexander:  vocal\nLonnie Johnson:  guitar\nClarence Williams:  piano\nEddie Lang:  guitar\nCarl Davis:  guitar\nMississippi Shieks\nLittle Hat Jones:  guitar\n\nSubmitted March 1997\nJames R. McCoy YEAR: 1990
EXTT0=
EXTT1=
EXTT2=
EXTT3=
EXTT4=
EXTT5=
EXTT6=
EXTT7=
EXTT8=
EXTT9=
EXTT10=
EXTT11=
EXTT12=
EXTT13=
EXTT14=
EXTT15=
EXTT16=
EXTT17=
EXTT18=
EXTT19=
EXTT20=
EXTT21=
EXTT22=
PLAYORDER=
